<svg xmlns="http://www.w3.org/2000/svg" width="441" height="245" fill="none" viewBox="0 0 441 245"><path stroke="url(#paint0_linear_6296_2622)" stroke-width="2" d="M1 1h439v66H1Z"/><path fill="url(#paint1_linear_6296_2622)" d="M145.188 20.552q-.288.336-.672.816-.336.48-.624.912-.912 1.632-2.736 4.032a59 59 0 0 1-4.128 4.848 34.6 34.6 0 0 1-5.088 4.368l-3.168-2.544a21.7 21.7 0 0 0 3.264-2.304 37 37 0 0 0 3.024-2.88 32 32 0 0 0 2.496-2.976q1.104-1.488 1.728-2.592h-27.36q-1.344 0-2.688.096-1.344.048-2.784.192v-4.368q1.248.192 2.688.336 1.44.096 2.784.096h28.656q.672-.048 1.296-.144t.96-.144Zm-19.152 6.336q0 3.888-.24 7.296t-.96 6.384a20.3 20.3 0 0 1-2.208 5.52q-1.44 2.496-3.888 4.704-2.448 2.16-6.096 3.984l-3.552-2.88a22 22 0 0 0 2.16-.864 16 16 0 0 0 2.16-1.296q2.832-1.68 4.512-3.792a14.8 14.8 0 0 0 2.496-4.56q.864-2.496 1.152-5.232.336-2.784.336-5.76 0-.912-.048-1.728 0-.816-.144-1.776Zm59.712-10.32a276 276 0 0 0-.096 1.968 47 47 0 0 0-.048 2.208v7.776q0 4.32-.336 7.344-.288 3.024-.912 5.184-.576 2.112-1.536 3.744a23 23 0 0 1-2.256 3.168 18 18 0 0 1-3.552 3.216 25 25 0 0 1-4.032 2.256 34 34 0 0 1-3.84 1.536l-3.12-3.312a29 29 0 0 0 6.24-2.304 17.9 17.9 0 0 0 5.232-4.08q1.296-1.488 2.064-3.024a13.3 13.3 0 0 0 1.2-3.504q.432-1.92.576-4.464t.144-5.952v-7.584q0-1.2-.096-2.208-.048-1.056-.144-1.968Zm-22.272.384q-.048.672-.144 1.632-.048.96-.048 1.824V36.44q0 .912.048 1.968.096 1.008.144 1.68h-4.416q.096-.576.144-1.584.096-1.056.096-2.112V20.408q0-.624-.048-1.68a19 19 0 0 0-.144-1.776Zm39.984 3.936q.96.144 2.112.24 1.2.048 1.92.048h26.4q1.104 0 2.16-.096a97 97 0 0 0 1.92-.192v4.224a33 33 0 0 0-2.016-.144 46 46 0 0 0-2.064-.048h-26.4q-.672 0-1.92.048-1.2.048-2.112.144Zm14.832 28.176V23.288h4.08v25.776Zm-17.76-2.352q1.056.144 2.112.24 1.104.048 2.112.048h31.728q1.104 0 2.064-.096 1.008-.096 1.92-.192v4.368a37 37 0 0 0-2.112-.144 47 47 0 0 0-1.872-.048h-31.728a48 48 0 0 0-4.224.192Zm69.12 5.28q.144-.576.192-1.248.096-.72.096-1.44V20.552q0-1.392-.096-2.304A25 25 0 0 0 269.7 17h4.416q0 .288-.096 1.248t-.096 2.304v27.696q2.256-1.056 4.8-2.784a38 38 0 0 0 4.944-4.032 30 30 0 0 0 4.272-4.992l2.256 3.264q-2.064 2.784-4.848 5.328a47.6 47.6 0 0 1-5.712 4.56q-2.976 2.016-5.808 3.408-.576.336-1.008.624-.384.288-.624.48Zm-21.984-.24a21 21 0 0 0 5.136-5.232 24.6 24.6 0 0 0 3.216-6.576q.528-1.632.816-4.08a81 81 0 0 0 .432-5.184q.144-2.784.144-5.376.048-2.64.048-4.656 0-1.056-.096-1.872a22 22 0 0 0-.24-1.632h4.416q-.048.288-.096.864-.048.528-.096 1.2T261.3 20.6q0 2.016-.048 4.752-.048 2.688-.24 5.664a94 94 0 0 1-.432 5.568q-.24 2.64-.768 4.416a25.1 25.1 0 0 1-3.312 7.248 26.7 26.7 0 0 1-5.232 5.952Zm71.904-31.536q-.48 3.744-1.248 7.824a70 70 0 0 1-1.872 7.92q-1.44 4.944-3.216 8.256-1.728 3.312-3.744 4.992t-4.224 1.68q-2.112 0-4.08-1.536t-3.216-4.416q-1.248-2.928-1.248-6.864t1.584-7.44a20.3 20.3 0 0 1 4.464-6.192q2.88-2.736 6.72-4.32t8.208-1.584q4.224 0 7.584 1.392 3.408 1.392 5.808 3.84 2.4 2.4 3.696 5.616 1.296 3.168 1.296 6.816 0 5.04-2.16 8.88-2.112 3.84-6.144 6.24-3.984 2.4-9.696 3.168l-2.256-3.552q1.152-.144 2.208-.288a24 24 0 0 0 1.92-.336 19.2 19.2 0 0 0 4.464-1.632 16 16 0 0 0 3.936-2.88q1.728-1.776 2.736-4.176 1.056-2.448 1.056-5.568 0-2.928-.96-5.424a12.8 12.8 0 0 0-2.832-4.464q-1.872-1.92-4.56-3.024t-6.144-1.104q-3.936 0-7.152 1.44-3.168 1.44-5.424 3.792-2.208 2.304-3.408 5.088-1.2 2.736-1.2 5.376 0 3.024.768 4.992.816 1.92 1.92 2.832 1.152.912 2.256.912 1.152 0 2.352-1.104 1.2-1.152 2.448-3.648 1.248-2.544 2.448-6.576a67 67 0 0 0 1.776-7.344q.768-3.888 1.104-7.632Z"/><path stroke="url(#paint2_linear_6296_2622)" stroke-width="2" d="M219.5 90V68"/><path fill="url(#paint3_linear_6296_2622)" d="M23.52 133.949v-11.907c5.145.735 10.878 1.029 18.963 1.029H102.9c9.849 0 14.112-.147 19.257-.882v11.76c-5.733-.735-9.849-.882-19.257-.882H42.483c-8.526 0-14.112.294-18.963.882m113.043 74.235v12.054c-5.145-.735-10.584-1.029-19.551-1.029H29.841c-8.82 0-14.259.294-19.551 1.029v-12.054c5.292.735 9.555 1.029 19.404 1.029h87.318c9.849 0 13.965-.147 19.551-1.029m78.204-77.175V119.69c-29.4 1.911-29.4 1.911-45.864 2.352-1.029-3.675-1.617-5.145-3.675-8.232h7.497c22.932 0 52.185-2.352 72.912-5.88 9.408-1.47 13.23-2.499 18.669-4.557l6.468 8.379c-1.323.294-5.733 1.029-18.522 3.381-6.468 1.176-17.346 2.646-28.518 3.675v12.201h46.746c6.174 0 10.584-.294 14.847-.882v9.555c-3.969-.588-8.526-.882-14.847-.882h-46.746v9.996h34.545c4.998 0 8.232-.147 11.76-.588-.441 3.969-.588 6.174-.588 10.143v26.313c0 4.116.147 6.321.588 9.996-3.822-.441-6.909-.588-11.907-.588h-34.398v11.172h37.044c6.321 0 10.731-.294 14.847-.882v9.849c-4.263-.588-8.673-.882-14.847-.882h-37.044v12.348h47.334c6.321 0 10.584-.294 14.994-.882v9.996c-4.41-.588-8.673-.882-14.994-.882H170.373c-6.321 0-10.584.294-14.847.882v-9.996c3.969.588 8.82.882 14.847.882h44.394v-12.348h-34.251c-6.174 0-10.584.294-14.7.882v-9.849c3.969.588 8.82.882 14.7.882h34.251v-11.172h-31.752c-4.998 0-7.938.147-11.76.588.441-4.116.588-5.88.588-9.996v-26.313c0-3.969-.147-6.174-.588-10.143 3.528.441 6.762.588 11.76.588h31.752V138.8h-43.806c-6.468 0-10.437.294-14.847.882v-9.555c3.822.588 8.82.882 14.847.882Zm0 24.99h-33.81v11.76h33.81Zm8.967 0v11.76h36.603v-11.76Zm-8.967 18.963h-33.81v11.907h33.81Zm8.967 0v11.907h36.603v-11.907Zm147-39.837h8.379c6.027 0 8.967-.147 12.642-.735v9.702c-3.528-.588-6.174-.735-11.466-.735h-9.555v76.734c0 7.056.294 11.319.882 16.464h-10.584c.588-5.292.882-9.849.882-16.464v-76.734h-10.731c-5.292 0-7.938.147-11.466.735v-9.702c3.528.588 6.615.735 12.789.735h9.408v-15.141c0-5.586-.294-9.261-.882-13.818h10.584c-.588 4.41-.882 7.938-.882 13.818Zm39.837 18.375h-7.497c-5.292 0-7.791.147-11.172.735v-9.849c3.234.588 5.733.735 11.172.735h19.992c5.733 0 8.379-.147 11.907-.735v9.849c-3.528-.588-6.321-.735-11.907-.735h-3.234v69.825c0 5.439-1.323 8.82-4.116 9.996-2.352 1.029-6.909 1.617-12.348 1.617-3.675 0-9.996-.294-13.377-.588-.294-3.822-.882-6.615-1.911-9.555 6.174 1.176 11.613 1.617 17.64 1.617 3.822 0 4.851-.588 4.851-3.234Zm-83.349-48.951 8.673 4.851c-1.911 2.205-1.911 2.205-6.321 8.085-6.174 8.232-14.7 16.611-23.667 23.667-1.617-3.087-3.234-5.145-5.733-7.203 12.642-8.967 22.932-20.139 27.048-29.4m15.729 51.45 8.526.882c-1.764 28.665-5.292 46.746-12.054 63.21-2.646-1.911-4.704-3.234-7.938-4.704 7.35-16.464 10.878-34.545 11.466-59.388m35.133 1.764 7.791-2.352c5.88 19.698 8.967 33.222 11.907 54.096l-8.673 3.087c-2.499-22.638-5.292-36.603-11.025-54.831m-3.822-45.57 6.762-3.822c5.292 6.468 8.085 10.437 12.348 17.934l-6.909 4.557c-4.116-8.085-6.468-11.76-12.201-18.669m58.065 2.205v9.849c-3.087-.441-6.615-.735-11.025-.735h-14.7c-4.116 0-7.644.294-10.878.735v-9.849c2.793.441 6.615.735 11.025.735h14.553c4.41 0 8.232-.294 11.025-.735M316.05 219.65v-33.663c0-5.88.147-10.29.441-17.199-3.969 5.292-7.35 8.82-12.642 13.377-1.47-3.234-2.646-5.292-5.145-8.232 9.114-6.762 16.17-14.259 23.667-25.578 2.793-4.263 5.145-9.114 6.468-13.083l8.526 5.439c-1.47 2.352-3.234 4.998-4.851 7.938-1.617 2.646-5.292 8.085-7.497 11.025v60.123c0 8.379.147 12.789.882 17.199h-10.731c.735-4.704.882-8.82.882-17.346"/><defs><linearGradient id="paint0_linear_6296_2622" x1="441" x2="396.035" y1="34" y2="-99.57" gradientUnits="userSpaceOnUse"><stop stop-color="#01d5c8"/><stop offset="1" stop-color="#0091b9"/></linearGradient><linearGradient id="paint1_linear_6296_2622" x1="340.5" x2="302.005" y1="34" y2="-54.161" gradientUnits="userSpaceOnUse"><stop stop-color="#01d5c8"/><stop offset="1" stop-color="#0091b9"/></linearGradient><linearGradient id="paint2_linear_6296_2622" x1="221" x2="218.834" y1="68" y2="68.215" gradientUnits="userSpaceOnUse"><stop stop-color="#01d5c8"/><stop offset="1" stop-color="#0091b9"/></linearGradient><linearGradient id="paint3_linear_6296_2622" x1="441" x2="288.055" y1="171.5" y2="-38.666" gradientUnits="userSpaceOnUse"><stop stop-color="#01d5c8"/><stop offset="1" stop-color="#0091b9"/></linearGradient></defs></svg>