<svg xmlns="http://www.w3.org/2000/svg" width="128" height="135" fill="none" viewBox="0 0 128 135"><g clip-path="url(#clip0_6296_2667)"><path stroke="#01b1a6" stroke-miterlimit="10" stroke-width="2" d="M72.893 95.967s-13.026-46.492 23.796-52.21c0 0-35.068 7.458-43.836-43.26 0 0 14.028 53.205-19.788 59.669 0 .248 29.056-10.94 39.828 35.8Z"/><path stroke="#01b1a6" stroke-miterlimit="10" stroke-width="2" d="M15.03 77.32S20.79 105.167 0 106.16c0 0 16.282-.994 17.785 27.348 0 0-4.259-28.342 17.534-33.066 0 .249-18.787 7.459-20.29-23.121Z"/><path fill="#01b1a6" d="M115.476 95.967s2.254 18.398-10.771 20.884c0 0 11.272 0 13.025 18.149 0 0-1.753-17.155 10.27-21.381 0 0-10.02 1.243-12.524-17.652"/></g><defs><clipPath id="clip0_6296_2667"><path fill="#fff" d="M128 135H0V0h128Z"/></clipPath></defs></svg>