<svg xmlns="http://www.w3.org/2000/svg" width="841" height="66" fill="none" viewBox="0 0 841 66"><path stroke="#01b1a6" stroke-width="3" d="M0 21.924h148.5M0 31.924h148.5M0 41.924h148.5"/><path fill="url(#paint0_linear_6340_2914)" d="m207.306 18.24-5.376.768c-.512-2.56-1.024-3.84-2.24-5.312-2.048-2.432-5.312-3.712-9.472-3.712-6.592 0-11.2 3.52-11.2 8.704 0 3.328 1.792 5.696 5.568 7.232 1.728.704 1.792.704 9.152 2.304 10.24 2.176 14.336 6.08 14.336 13.504 0 9.024-6.208 14.144-17.216 14.144-7.168 0-12.48-2.112-15.424-6.08-1.664-2.24-2.368-4.224-3.008-8.448l5.568-.704c.192 3.072.64 4.608 1.984 6.336 2.112 2.816 5.952 4.416 10.688 4.416 7.616 0 12.224-3.584 12.224-9.536 0-3.136-1.28-5.504-3.712-6.848-2.112-1.216-2.816-1.408-10.56-3.136-4.032-.832-6.528-1.728-8.704-2.944-3.968-2.24-5.952-5.632-5.952-10.112 0-8.064 6.464-13.248 16.384-13.248 6.336 0 11.264 2.048 14.144 5.888 1.472 1.92 2.112 3.52 2.816 6.784m9.469-11.84h6.72c.576 1.472 1.408 2.88 3.264 5.76l20.224 30.272c.704 1.088 2.624 4.224 4.16 6.976-.256-5.12-.384-7.936-.384-8.512V13.76c0-3.136-.128-5.12-.512-7.36h5.952c-.384 2.304-.512 4.096-.512 7.36v34.112c0 3.2.128 5.12.512 7.168h-6.976c-.896-1.856-1.6-3.136-3.328-5.76l-20.544-30.848c-.512-.768-2.624-4.416-3.52-6.144.256 3.008.384 6.144.384 7.808v27.328c0 3.392.128 5.504.512 7.616h-5.952c.384-2.048.512-4.288.512-7.616V13.568c0-2.944-.128-4.864-.512-7.168m82.906 11.84-5.376.768c-.512-2.56-1.024-3.84-2.24-5.312-2.048-2.432-5.312-3.712-9.472-3.712-6.592 0-11.2 3.52-11.2 8.704 0 3.328 1.792 5.696 5.568 7.232 1.728.704 1.792.704 9.152 2.304 10.24 2.176 14.336 6.08 14.336 13.504 0 9.024-6.208 14.144-17.216 14.144-7.168 0-12.48-2.112-15.424-6.08-1.664-2.24-2.368-4.224-3.008-8.448l5.568-.704c.192 3.072.64 4.608 1.984 6.336 2.112 2.816 5.952 4.416 10.688 4.416 7.616 0 12.224-3.584 12.224-9.536 0-3.136-1.28-5.504-3.712-6.848-2.112-1.216-2.816-1.408-10.56-3.136-4.032-.832-6.528-1.728-8.704-2.944-3.968-2.24-5.952-5.632-5.952-10.112 0-8.064 6.464-13.248 16.384-13.248 6.336 0 11.264 2.048 14.144 5.888 1.472 1.92 2.112 3.52 2.816 6.784m49.405 3.712 3.136-1.536c2.432 2.944 3.712 4.864 5.888 8.96l-3.264 1.664c-1.728-3.648-3.392-6.272-5.76-9.088m6.208-3.008 3.136-1.536c2.432 2.944 3.712 4.864 5.888 8.96l-3.2 1.664c-1.792-3.648-3.456-6.272-5.824-9.088m-45.12-.832-.32-5.056c1.216.064 1.856.064 2.304.064.896 0 1.664-.064 3.648-.192 7.616-.576 28.096-1.792 36.352-2.112 3.584-.192 6.592-.448 7.616-.704l.384 4.736c-2.56 0-4.736.256-7.168.896-4.288 1.088-8.768 3.392-12.288 6.4-5.12 4.288-7.872 9.472-7.872 14.784 0 5.376 3.264 9.664 8.96 11.84 3.136 1.152 7.168 2.048 9.6 2.048h.64L351.198 56c-.704-.128-.96-.192-1.984-.384-6.336-1.088-10.176-2.432-13.824-4.928-4.544-3.072-7.104-7.744-7.104-13.056 0-7.424 4.352-14.464 11.968-19.648 1.984-1.344 3.648-2.24 6.08-3.392-3.776.64-6.976.96-14.08 1.408-13.248.896-18.944 1.408-22.08 2.112m77.248-9.216 5.376.96c-.256.832-.384 1.344-.832 4.352-2.688 18.24-7.744 30.272-16.896 39.936-1.664-1.792-2.24-2.24-4.096-3.328 3.968-3.712 6.592-7.296 9.28-12.672 3.136-6.336 5.376-13.824 6.592-22.208.384-2.56.64-4.864.64-6.016 0-.192 0-.576-.064-1.024m18.368.96 4.736-.96c.128 3.328 1.344 9.664 2.944 15.36 3.136 11.456 8 20.224 14.528 26.432-1.792 1.216-2.432 1.728-3.968 3.584-4.288-4.608-7.488-9.664-10.688-16.64-3.072-6.912-5.376-14.912-6.72-23.552-.384-2.368-.512-3.2-.832-4.224m8.96-.32 3.328-1.344c2.368 3.456 3.712 5.952 5.376 9.856l-3.456 1.472c-1.536-3.904-3.136-6.912-5.248-9.984m6.528-2.56 3.392-1.28c2.368 3.456 3.712 5.888 5.376 9.856l-3.52 1.408c-1.472-3.904-3.072-6.912-5.248-9.984m57.536-2.816 3.392-1.408c2.624 3.072 3.84 4.864 6.08 8.768l-3.392 1.664c-1.792-3.456-3.52-6.08-6.08-9.024m6.528-2.688L488.734 0c2.624 3.072 3.84 4.864 6.08 8.768l-3.392 1.664c-1.792-3.456-3.52-6.08-6.08-8.96m3.904 50.944-3.648 4.032c-5.056-6.4-12.288-13.376-20.48-19.776-4.48 5.184-7.616 8.064-12.224 11.456-4.416 3.264-7.808 5.312-12.544 7.744-1.024-1.984-1.536-2.688-3.136-4.224 4.928-1.984 8.064-3.776 12.992-7.424 10.24-7.552 18.176-17.6 22.848-28.864.128-.384.192-.448.32-.768.128-.192.128-.192.192-.448-.576.064-.768.064-1.536.064l-21.376.32c-2.88.064-4.736.192-6.592.512l-.128-5.184c1.728.32 2.88.384 5.056.384h1.664l22.848-.32c2.24 0 3.008-.128 4.096-.512l2.688 2.816c-.64.704-1.088 1.472-1.792 3.072-3.584 7.936-6.592 13.056-10.56 17.984 8.384 6.4 14.016 11.456 21.312 19.136m23.872-48.832 4.992.512c-.512 1.344-.896 3.136-1.472 6.592-1.024 6.464-1.92 13.44-2.112 16.704l.256.064c.128-.512.128-.512.448-1.856.768-3.52 2.048-6.656 3.904-9.536 3.584-5.504 7.808-8.256 12.8-8.256 4.16 0 7.744 1.984 10.24 5.696 2.688 3.968 3.84 8.704 3.84 15.552 0 11.584-5.184 20.352-14.784 25.152-3.072 1.536-6.912 2.816-11.392 3.776-.768-1.92-1.152-2.624-2.56-4.352 5.952-.896 9.28-1.92 12.992-4.032 7.488-4.288 11.008-11.008 11.008-21.248 0-10.304-3.584-16.256-9.728-16.256-4.864 0-8.96 3.648-12.608 11.136-2.24 4.672-3.456 9.6-3.456 14.272 0 .256 0 .576.064 1.536l-4.608.192v-.704l-.064-1.152-.128-6.656v-1.472c0-6.272.576-12.288 2.176-23.616.128-.96.192-1.28.192-2.048m76.352 10.624V8.704c0-3.136-.128-4.672-.448-6.656h5.12c-.32 1.984-.448 3.776-.448 6.528v5.632h18.752c2.176 0 3.392-.064 4.864-.256-.256 1.664-.32 3.008-.32 5.056V36.48c0 2.112.128 3.776.384 5.696h-4.608v-4.352h-19.072v14.912c0 3.648.064 5.248.448 7.296h-5.12c.32-2.176.448-3.84.448-7.296V37.824h-18.048v4.352h-4.608c.256-1.856.384-3.648.384-5.696V19.008c0-1.984-.128-3.392-.32-5.056 1.536.192 2.752.256 4.8.256Zm0 3.84h-18.048v15.936h18.048Zm4.224 15.936h19.072V18.048h-19.072Zm46.025-24.06-6.063 32.656h-5.125l5.25-32.656Zm-13.5 42.687q.031-1.468.937-2.437.938-1 2.406-1.031 1.438-.032 2.376.906.968.937.937 2.375 0 1.437-.969 2.406-.937.97-2.375 1t-2.375-.875-.937-2.344m29.5-42.687-6.063 32.656h-5.125l5.25-32.656Zm-13.5 42.687q.031-1.468.937-2.437.938-1 2.406-1.031 1.438-.032 2.376.906.968.937.937 2.375 0 1.437-.969 2.406-.937.97-2.375 1t-2.375-.875-.937-2.344m29.5-42.687-6.063 32.656h-5.125l5.25-32.656Zm-13.5 42.687q.031-1.468.937-2.437.938-1 2.406-1.031 1.438-.032 2.376.906.968.937.937 2.375 0 1.437-.969 2.406-.937.97-2.375 1t-2.375-.875-.937-2.344"/><path stroke="#01b1a6" stroke-width="3" d="M692.5 21.924H841M692.5 31.924H841M692.5 41.924H841"/><defs><linearGradient id="paint0_linear_6340_2914" x1="672.5" x2="636.468" y1="33.424" y2="-96.547" gradientUnits="userSpaceOnUse"><stop stop-color="#01d5c8"/><stop offset="1" stop-color="#0091b9"/></linearGradient></defs></svg>