<svg xmlns="http://www.w3.org/2000/svg" width="453" height="102" fill="none" viewBox="0 0 453 102"><g filter="url(#filter0_dd_6296_2609)"><path fill="url(#paint0_linear_6296_2609)" d="m28.19 30.85-.21-5.04c1.82.35 3.36.42 6.79.42 3.85 0 9.45-.21 11.76-.49 1.26-.14 1.82-.35 2.59-.84l3.71 2.94c-.91 1.26-1.05 1.68-3.85 10.15-1.54 4.76-2.03 6.09-3.29 9.8 6.72.7 11.9 2.17 19.11 5.53.63-3.92.84-6.93.84-14.21 0-1.54-.07-2.17-.28-3.43l5.25.07c-.21 1.26-.21 1.75-.28 4.34-.21 7.14-.49 10.92-1.26 15.19 3.78 1.96 6.16 3.22 9.59 5.25.56.35 1.05.63 2.03 1.05l-1.89 5.39c-2.17-1.75-5.74-4.06-10.92-6.93-1.61 5.04-3.78 8.82-7.21 12.67-3.22 3.57-6.86 6.37-11.13 8.54-1.61-1.89-2.1-2.45-3.71-3.64 5.32-2.45 8.19-4.55 11.34-8.05 3.22-3.57 5.46-7.63 6.44-11.76-6.3-3.29-12.18-5.04-19.32-5.81-2.24 6.79-4.83 13.51-6.58 16.87-2.52 4.83-5.11 6.93-8.47 6.93-5.25 0-9.24-4.97-9.24-11.48 0-5.74 3.01-10.85 8.33-13.86 3.64-2.17 7.07-2.94 12.6-3.01 2.31-6.86 3.15-9.52 5.6-17.64-5.53.42-6.58.49-13.23.7-2.8.07-3.5.14-5.11.35m11.34 20.79c-5.25.42-8.75 1.75-11.55 4.55-2.1 2.17-3.36 5.04-3.36 8.05 0 3.71 2.03 6.65 4.55 6.65 2.87 0 5.25-4.34 10.36-19.25m71.19-29.54 5.67 1.54c-.91 1.68-.91 1.68-7.77 19.25-2.17 5.53-2.17 5.53-5.04 11.55l-.77 1.54c-.28.49-.35.63-.63 1.26l.35.14c4.62-6.65 8.19-9.17 13.16-9.17 3.01 0 5.74 1.61 7 4.13.84 1.68 1.19 3.92 1.19 7.91v4.76c0 3.64.28 5.39 1.12 6.65.91 1.33 3.01 2.17 5.32 2.17 4.97 0 8.61-2.87 11.2-8.75 1.47-3.22 2.24-6.16 2.66-9.94 1.82 1.75 2.59 2.38 4.62 3.57-1.4 5.53-2.8 9.03-4.97 12.32-3.22 4.9-8.19 7.63-13.93 7.63-5.18 0-8.89-2.31-10.22-6.3-.42-1.4-.63-3.64-.63-7.56v-3.99c0-2.87-.14-4.2-.56-5.32-.63-1.75-1.89-2.59-3.99-2.59-4.06 0-8.61 3.71-12.53 10.36-2.31 3.92-5.53 11.9-6.44 16.1l-5.39-1.68c.91-1.96.91-1.96 10.99-28.84 7.63-20.23 9.17-24.64 9.59-26.74m66.57-.7 5.53.77c-.49 1.33-.56 1.61-1.12 4.48-.49 2.38-.91 4.06-1.89 7.63 4.9-.42 9.31-1.26 12.53-2.31l.21 4.83c-.77.14-.77.14-2.45.42-2.87.63-7.21 1.19-11.48 1.47-2.17 7.49-4.69 14-7.77 20.44-1.68 3.36-2.31 4.55-4.97 9.17-.63.98-1.05 1.82-1.4 2.38l-4.76-2.8c2.24-2.8 4.13-5.88 6.72-10.92 3.22-6.37 5.25-11.41 7.28-18.06-1.75.07-4.13.14-5.18.14-1.19 0-3.57-.07-4.62-.07-.77-.07-1.33-.07-1.54-.07h-.91l.07-4.83c2.38.42 4.48.56 8.33.56 1.4 0 3.71-.07 5.04-.07 1.12-3.99 2.24-9.94 2.38-13.16m41.23 19.32-2.52 4.2c-5.88-4.06-11.2-6.86-18.55-9.52l2.59-3.92c8.12 3.22 12.81 5.6 18.48 9.24m.14 31.01-2.59 4.76c-2.73-3.36-7.14-6.86-12.25-9.52.14 1.12.14 1.54.14 2.24 0 7.21-4.76 11.2-13.3 11.2-8.4 0-13.65-3.92-13.65-10.15 0-3.78 2.59-7.28 6.51-8.89 2.45-1.05 5.11-1.54 8.26-1.54 2.59 0 4.34.28 7.07 1.05-.35-4.55-.49-7.84-.49-9.59 0-2.52.14-4.2.7-6.79l4.76.49c-.7 2.59-.91 4.06-.91 6.51 0 3.15.35 7.98.77 10.64 5.6 2.45 9.94 5.11 13.72 8.47.77.77.77.77 1.26 1.12m-19.46-6.37c-2.94-1.05-4.97-1.4-7.77-1.4-5.95 0-9.73 2.45-9.73 6.3 0 3.57 3.36 5.74 8.89 5.74 6.02 0 8.75-2.38 8.75-7.63 0-.84-.14-3.01-.14-3.01m76.79-39.76 3.22-1.96c3.22 3.5 4.83 5.6 7.42 9.8l-3.36 2.1c-2.03-3.71-4.27-6.72-7.28-9.94m-45.92 19.18-.56-5.04c2.52-.07 9.8-.91 15.47-1.82 1.19-5.25 2.1-11.9 2.1-14.84v-.91l5.6.63c-.49 1.47-.7 2.73-1.33 6.72-.35 2.03-.84 4.62-1.47 7.98 1.61-.14 2.52-.21 4.13-.21 4.97 0 7.91.84 10.08 2.94 2.45 2.31 3.43 5.53 3.43 11.27 0 10.71-1.82 20.02-4.69 24.08-1.68 2.38-3.57 3.29-6.86 3.29-3.01 0-5.95-.77-10.57-2.73.14-1.05.14-1.54.14-2.52 0-1.05 0-1.47-.21-2.73 3.99 2.03 7.91 3.22 10.43 3.22q2.625 0 3.99-3.36c1.89-4.48 2.94-11.62 2.94-19.46 0-7.42-2.1-9.8-8.61-9.8-1.54 0-2.45.07-5.04.35-2.59 10.99-5.81 20.02-10.57 29.61-.91 1.75-2.38 4.55-4.55 8.47l-4.76-2.8c2.17-2.73 4.83-7.42 7.28-12.67 3.29-7 5.39-13.16 7.7-22.19-6.02.91-9.38 1.47-10.01 1.61-1.61.28-2.17.42-4.06.91m52.29-22.75 3.22-2.03c3.22 3.5 4.83 5.67 7.42 9.87l-3.36 2.1c-2.03-3.71-4.27-6.72-7.28-9.94m-10.99 13.44 4.13-2.17c7.14 7.7 11.34 14.91 14.63 24.78l-4.48 2.52c-2.66-9.59-7.49-18.13-14.28-25.13m55.37 18.2h-2.73c-3.22 0-4.83.07-6.51.35v-4.06c1.54.28 3.15.35 6.44.35h2.73c-.07-2.1-.14-3.01-.35-4.48h4.76c-.14 1.26-.28 2.38-.28 4.48h11.55c-.07-2.1-.14-3.15-.35-4.48h4.76c-.14 1.47-.21 2.38-.28 4.48h4.55c3.22 0 4.83-.07 6.44-.35v4.06c-1.82-.28-3.36-.35-6.58-.35h-4.41v6.65h6.51c3.5 0 5.11-.07 6.86-.35v4.13c-1.68-.28-3.5-.35-6.86-.35H321c-3.15 0-4.83.07-6.37.35v-4.13c1.54.28 3.15.35 6.3.35h5.81Zm4.06 0v6.65h11.62v-6.65Zm3.64-27.93v4.9c0 1.68 0 2.8.14 3.71-1.33-.14-2.52-.21-4.34-.21h-10.29v4.48c0 1.75.42 1.96 5.04 1.96 5.04 0 6.16-.21 6.65-1.05.35-.56.49-1.61.7-4.27 1.4.91 2.31 1.33 3.64 1.68-.42 3.5-.84 4.83-2.03 5.88-.98.91-2.87 1.19-8.54 1.19-8.19 0-9.31-.49-9.31-4.13v-5.25c0-1.82-.07-2.66-.21-3.85 1.05.14 2.31.21 4.41.21h10.22v-5.25H321c-2.45 0-3.92.07-5.53.35v-4.2c1.54.28 3.22.35 5.53.35h7.42c3.29 0 4.83-.07 6.16-.28-.14 1.12-.14 2.17-.14 3.78m23.17 0v4.9c0 1.68 0 2.73.14 3.71-1.33-.14-2.52-.21-4.34-.21h-10.29v4.48c0 1.12.14 1.4.84 1.68.63.21 2.03.35 4.13.35 4.83 0 6.51-.21 7.07-.77.49-.56.77-1.89.98-4.62 1.4.84 2.45 1.33 3.71 1.68-.84 6.79-1.33 7.07-11.2 7.07-8.4 0-9.45-.49-9.45-4.2V34.7c0-1.47-.07-2.17-.28-3.92 1.12.14 2.31.21 4.48.21h10.29v-5.25h-9.52c-2.45 0-3.92.07-5.53.35v-4.2c1.54.28 3.22.35 5.53.35h7.42c3.29 0 4.83-.07 6.16-.28-.14 1.05-.14 2.1-.14 3.78m-28.28 38.57 3.43 2.24c-4.76 4.2-7.35 5.95-12.88 8.47-.84-1.26-1.61-2.1-3.22-3.15 5.74-2.24 8.82-4.06 12.67-7.56m11.27 2.45 3.29-2.24c4.69 3.43 8.54 5.32 14.7 7.28-1.47 1.4-2.03 2.1-3.01 3.57-6.16-2.38-10.15-4.69-14.98-8.61m-41.3-41.93 3.22-2.87c4.69 4.62 6.79 6.93 10.36 11.62l-3.57 3.15c-3.64-5.32-5.6-7.63-10.01-11.9m-1.19 27.44v-4.55c1.68.28 2.8.35 5.39.35h3.29c2.17 0 3.5-.07 5.32-.35-.28 2.31-.28 3.71-.28 7.35v13.79c1.68 3.57 3.15 5.04 6.02 6.37 3.5 1.54 7.63 2.1 15.89 2.1 13.02 0 20.86-.42 28.21-1.4-.98 2.24-1.12 2.66-1.61 5.04-7.21.35-15.05.49-23.52.49-12.25 0-15.89-.42-20.09-2.38-2.87-1.4-5.18-3.57-7.28-6.72-2.1 2.17-3.29 3.36-4.9 4.76-.84.7-.84.7-3.29 2.73-1.26 1.05-1.26 1.05-2.24 1.96l-2.31-4.62c3.22-1.47 6.3-3.92 10.78-8.33V51.92h-4.27c-2.24 0-3.5.07-5.11.35m116.97-17.22 3.5-1.89c2.87 3.22 4.55 5.6 6.79 9.52l-3.57 1.96c-1.96-3.78-3.71-6.23-6.72-9.59m-31.36-7.07 2.1-4.55c1.54 1.12 4.34 2.24 7.84 3.36 4.48 1.4 12.39 2.73 16.17 2.73.21 0 .56 0 1.05-.07l-.07 4.97c-1.68.28-3.01.84-5.25 2.1-5.46 3.22-8.4 6.65-8.4 9.87 0 .77.35 1.96.77 2.73.84 1.4.84 1.4 5.53 6.37 4.55 4.83 6.44 8.54 6.44 12.53 0 6.51-5.25 11.34-12.53 11.34-4.9 0-9.1-1.75-13.93-5.88.7-1.61.91-2.24 1.47-4.97 3.99 3.99 7.98 6.02 12.04 6.02 4.34 0 7.7-2.87 7.7-6.72 0-1.82-.7-3.85-2.17-5.88-1.19-1.82-1.19-1.82-5.81-6.93-2.8-3.08-3.99-5.53-3.99-8.47 0-3.71 2.38-7.28 6.93-10.71 1.75-1.26 2.94-1.96 4.48-2.59-5.46-.35-11.34-1.82-18.06-4.48-1.12-.42-1.4-.56-2.31-.77m-5.74 22.96 4.83 1.54c-.35 1.05-.42 1.26-.98 3.15-1.61 5.88-3.92 11.55-6.44 16.24-.56.98-.56.98-2.03 3.22-.28.49-.35.56-.77 1.26-1.54-1.4-2.17-1.89-4.27-2.94 4.41-5.6 8.12-14.28 9.66-22.47m35.7 1.4 4.27-2.03c4.34 5.95 4.97 6.93 7.21 11.2 1.96 3.85 3.01 6.3 4.69 11.27l-4.55 2.38c-1.68-7.14-7.35-18.34-11.62-22.82m8.19-20.93 3.5-1.89c2.87 3.22 4.55 5.6 6.79 9.52L428.59 41c-1.96-3.71-3.71-6.23-6.72-9.59"/></g><defs><linearGradient id="paint0_linear_6296_2609" x1="855.19" x2="828.262" y1="51.17" y2="-97.018" gradientUnits="userSpaceOnUse"><stop stop-color="#01d5c8"/><stop offset="1" stop-color="#0091b9"/></linearGradient><filter id="filter0_dd_6296_2609" width="452.16" height="101.81" x="0" y="0" color-interpolation-filters="sRGB" filterUnits="userSpaceOnUse"><feFlood flood-opacity="0" result="BackgroundImageFix"/><feColorMatrix in="SourceAlpha" result="hardAlpha" values="0 0 0 0 0 0 0 0 0 0 0 0 0 0 0 0 0 0 127 0"/><feOffset/><feGaussianBlur stdDeviation="10"/><feComposite in2="hardAlpha" operator="out"/><feColorMatrix values="0 0 0 0 1 0 0 0 0 1 0 0 0 0 1 0 0 0 1 0"/><feBlend in2="BackgroundImageFix" result="effect1_dropShadow_6296_2609"/><feColorMatrix in="SourceAlpha" result="hardAlpha" values="0 0 0 0 0 0 0 0 0 0 0 0 0 0 0 0 0 0 127 0"/><feOffset/><feGaussianBlur stdDeviation="2"/><feComposite in2="hardAlpha" operator="out"/><feColorMatrix values="0 0 0 0 1 0 0 0 0 1 0 0 0 0 1 0 0 0 1 0"/><feBlend in2="effect1_dropShadow_6296_2609" result="effect2_dropShadow_6296_2609"/><feBlend in="SourceGraphic" in2="effect2_dropShadow_6296_2609" result="shape"/></filter></defs></svg>