<svg xmlns="http://www.w3.org/2000/svg" width="97" height="102" fill="none" viewBox="0 0 97 102"><g clip-path="url(#clip0_6296_2627)"><path stroke="#01b1a6" stroke-miterlimit="10" stroke-width="2" d="M41.761 29.492s9.871 35.127-18.033 39.447c0 0 26.575-5.635 33.22 32.685 0 0-10.63-40.199 14.995-45.083 0-.187-22.02 8.266-30.182-27.05Z"/><path stroke="#01b1a6" stroke-miterlimit="10" stroke-width="2" d="M85.61 43.58S81.246 22.541 97 21.79c0 0-12.338.751-13.478-20.663 0 0 3.227 21.414-13.287 24.983 0-.188 14.237-5.635 15.376 17.47Z"/><path fill="#01b1a6" d="M9.491 29.492s-1.708-13.9 8.163-15.78c0 0-8.542 0-9.871-13.712 0 0 1.329 12.961-7.783 16.155 0 0 7.593-.94 9.491 13.337"/></g><defs><clipPath id="clip0_6296_2627"><path fill="#fff" d="M0 0h97v102H0Z"/></clipPath></defs></svg>