<svg xmlns="http://www.w3.org/2000/svg" width="800" height="276" fill="none" viewBox="0 0 800 276"><path stroke="#404040" d="M184.5 14h110M184.5 19h110"/><path fill="#404040" d="M305.924 24.744h17.352l1.656-2.16.288.24q.312.24.768.624.456.36.96.792.528.432.96.816-.096.384-.696.384h-21.096Zm2.304-13.464h12.792l1.584-2.064.288.24q.288.216.744.6.456.36.936.768.504.408.912.768-.096.384-.672.384H308.42Zm21.888.36h17.592l1.368-1.68.24.192q.264.168.648.48.408.288.84.648.456.336.816.672-.024.168-.216.264a.86.86 0 0 1-.432.096h-20.664Zm1.464 12.408h15.072l1.344-1.608.24.192q.24.168.624.456t.816.648q.432.336.768.624-.096.384-.648.384h-18.024Zm-1.896 3.432h18.144l1.464-1.872.264.216q.288.192.72.528t.888.72.84.72q-.072.384-.672.384H329.9Zm17.424-20.784 2.088 2.112q-.408.36-1.392-.096-1.584.24-3.528.456-1.92.216-4.056.384-2.112.144-4.296.24-2.184.072-4.248.072l-.072-.456a86 86 0 0 0 4.152-.456q2.184-.312 4.272-.672 2.112-.384 3.936-.792a52 52 0 0 0 3.144-.792m-7.536 2.256h2.352v18.72h-2.352ZM334.1 20.88h13.296v.672H334.1Zm0-3.216h13.344v.672H334.1Zm12.384-3.12h-.24l1.128-1.248 2.424 1.848a1.7 1.7 0 0 1-.384.264 1.9 1.9 0 0 1-.6.216v6.192q-.024.072-.36.24a3.5 3.5 0 0 1-.768.288q-.432.12-.816.12h-.384Zm-13.68 0v-1.032l2.472 1.032h11.952v.672h-12.12v6.864q0 .096-.288.288-.288.168-.744.312-.432.12-.936.12h-.336Zm31.464-3.744q.36.384.696.888.36.48.6 1.032t.24 1.128q0 .888-.192 1.968a11.6 11.6 0 0 1-.6 2.112q-.312.912-.816 1.944-.48 1.008-1.128 1.992-.648.96-1.392 1.776-.72.792-1.536 1.272-.792.48-1.608.48-.672 0-1.296-.456-.624-.48-1.152-1.296a7 7 0 0 1-.792-1.872 8.4 8.4 0 0 1-.288-2.208q0-1.152.36-2.376a10 10 0 0 1 1.128-2.424 10.5 10.5 0 0 1 1.896-2.16 9.9 9.9 0 0 1 3.264-1.896q1.824-.648 3.912-.648 1.992 0 3.648.624a8.55 8.55 0 0 1 2.88 1.776 7.85 7.85 0 0 1 1.92 2.736q.696 1.56.696 3.432 0 1.608-.6 3.096-.576 1.488-1.848 2.688t-3.36 1.968q-2.064.768-5.04.912l-.096-.504q2.976-.624 4.848-1.848 1.896-1.248 2.76-3 .888-1.752.888-3.864 0-2.184-.912-3.768a6.17 6.17 0 0 0-2.448-2.472q-1.56-.888-3.552-.888-1.656 0-3.336.72a8.6 8.6 0 0 0-2.928 1.992 8.7 8.7 0 0 0-1.68 2.472q-.6 1.32-.6 2.832 0 1.032.264 1.92.264.864.696 1.392.456.528.936.528.552 0 1.2-.576a9.3 9.3 0 0 0 1.272-1.416q.624-.864 1.152-1.776.528-.936.84-1.656.432-.96.696-2.064.288-1.104.288-1.992 0-.696-.264-1.272a6.3 6.3 0 0 0-.576-1.08Zm32.808 1.296q-.36-.456-.84-1.032-.456-.6-1.248-1.2l.288-.336q.864.288 1.608.672.744.36 1.2.768.384.384.552.696.192.312.192.696a.8.8 0 0 1-.24.528.58.58 0 0 1-.504.192q-.288 0-.504-.264a24 24 0 0 0-.504-.72m1.8-2.088q-.36-.48-.816-1.008t-1.224-1.08l.24-.336a10 10 0 0 1 1.584.576q.672.312 1.128.648t.672.696.216.744a.94.94 0 0 1-.168.552q-.168.216-.528.216a.76.76 0 0 1-.552-.288 9 9 0 0 0-.552-.72M379.388 15l.336-.144q.408.456.792.792t.888.336 1.512-.096q1.032-.12 2.352-.264 1.344-.168 2.784-.36 1.464-.192 2.856-.36t2.52-.288q.816-.072 1.272-.192.48-.12.72-.192.264-.072.408-.072.648 0 1.272.216.648.192 1.08.552.432.336.432.768 0 .456-.216.648-.192.168-.648.168-.36 0-1.128-.096-.744-.12-1.704-.12-.936 0-2.4.096-1.44.072-3.048.24-1.008.096-2.136.288a43 43 0 0 0-2.088.36q-.936.192-1.392.336-.6.168-1.152.384-.552.192-1.032.216-.336 0-.792-.288a4 4 0 0 1-.84-.72q-.36-.432-.504-.792a2 2 0 0 1-.144-.648 6 6 0 0 1 0-.768m2.52 13.776-.408-.456q1.656-1.104 2.832-2.352 1.2-1.272 2.016-2.52.84-1.272 1.32-2.4.504-1.152.72-2.04t.216-1.368q0-.36-.192-.72-.168-.36-.624-.744l1.368-.216q.6.312 1.152.648.552.312.912.672.36.336.36.672a.76.76 0 0 1-.168.48q-.168.192-.408.48-.24.264-.456.768a26 26 0 0 1-1.032 2.16q-.624 1.152-1.608 2.376t-2.448 2.4q-1.464 1.152-3.552 2.16m11.544-17.496q-.696.144-1.68.336-.984.168-2.064.312t-2.088.264q-.984.096-1.776.096-1.032 0-1.68-.6-.624-.6-1.248-1.728l.288-.264q.72.48 1.296.648.6.144 1.2.144.816 0 1.632-.096a15 15 0 0 0 1.56-.264l1.272-.288a8.5 8.5 0 0 0 1.032-.312q.36-.144.576-.24.24-.12.432-.12 1.008 0 1.632.336.648.312.648.912 0 .312-.24.528-.216.192-.792.336m26.808.408q-.312-.48-.744-1.104-.432-.648-1.2-1.296l.288-.36q.912.36 1.608.792a4.5 4.5 0 0 1 1.152.936q.384.408.504.696.144.288.144.648a.85.85 0 0 1-.216.504.58.58 0 0 1-.48.168q-.312 0-.552-.264a16 16 0 0 1-.504-.72m1.944-2.016a51 51 0 0 1-.744-.984q-.408-.552-1.224-1.2l.264-.336q.96.312 1.632.648t1.128.768q.408.384.576.72.168.312.168.696 0 .288-.192.504-.168.192-.504.192-.312 0-.552-.288a54 54 0 0 0-.552-.72m-9.096-.36-.024-.432q.48-.216.912-.36.456-.168.864-.168.456 0 .936.168.504.168.912.456.432.264.696.576.264.288.264.552t-.144.408a3 3 0 0 0-.264.384q-.12.24-.144.84l-.048 1.416q0 .744-.024 1.416 0 .648-.024 1.176a49 49 0 0 1-.144 3.144q-.12 1.488-.48 2.784a6.9 6.9 0 0 1-1.056 2.28q-1.032 1.464-2.784 2.616-1.752 1.128-4.08 1.824l-.264-.456a21.7 21.7 0 0 0 2.904-1.824 9.2 9.2 0 0 0 2.448-2.736q.576-.912.864-2.136.288-1.248.408-2.664.144-1.44.144-2.904 0-1.896-.024-3.216 0-1.32-.12-2.208-.048-.432-.48-.6-.432-.192-1.248-.336m-6.576 1.104q.384-.192.816-.312.456-.144.84-.144.336 0 .768.144.432.12.84.36.408.216.672.504.288.288.288.6 0 .264-.096.432a3 3 0 0 0-.192.336q-.096.192-.12.6-.024.288-.048.792 0 .504-.024 1.104v5.04q.024.816.024 1.344 0 .72-.24 1.056-.216.336-.72.336-.384 0-.696-.336a2.8 2.8 0 0 1-.456-.84 3 3 0 0 1-.168-.936q0-.36.096-.816.12-.48.216-1.272t.096-2.112v-1.224q0-.672-.024-1.32 0-.648-.048-1.152-.024-.528-.096-.792a.87.87 0 0 0-.504-.624q-.408-.192-1.2-.36Zm-4.536 4.08.36-.12q.432.528.768.888.36.36.84.36.408 0 1.08-.048.696-.048 1.488-.12.816-.096 1.536-.168.744-.096 1.2-.144l1.752-.168q1.008-.12 2.088-.216 1.08-.12 2.04-.192.96-.096 1.584-.168a36 36 0 0 0 1.584-.144q.6-.096.936-.168t.528-.096q.216-.048.384-.048.624 0 1.248.192.624.168 1.056.528.432.336.432.816 0 .456-.24.624-.216.144-.648.144-.36 0-.888-.072-.504-.096-1.272-.168a15 15 0 0 0-1.848-.096q-.864 0-2.016.072-1.128.072-2.352.192-1.2.096-2.328.216-1.104.12-1.92.216-1.128.144-2.04.336-.888.168-1.512.336a6 6 0 0 0-.888.36 1.86 1.86 0 0 1-.792.192q-.408 0-.84-.336a4.8 4.8 0 0 1-.72-.792 5.4 5.4 0 0 1-.432-.672 2.3 2.3 0 0 1-.168-.696 7 7 0 0 1 0-.84m34.72-5.808.144-.408a9 9 0 0 1 .936 0 3.2 3.2 0 0 1 .96.192q.576.168 1.128.6.576.408.936.888.36.456.36.84a.62.62 0 0 1-.168.456 2.4 2.4 0 0 1-.408.312 3.3 3.3 0 0 0-.6.528q-.744.792-1.848 1.944a55 55 0 0 1-2.52 2.4q-.504.456-1.44 1.2-.936.72-2.208 1.584-1.272.84-2.832 1.68a25 25 0 0 1-3.264 1.44l-.288-.504q1.656-.96 3.168-2.04a43 43 0 0 0 2.88-2.256 45 45 0 0 0 2.496-2.304 32 32 0 0 0 1.968-2.136 25 25 0 0 0 1.368-1.776q.648-.936.648-1.368 0-.312-.384-.624a6 6 0 0 0-1.032-.648m-1.92 7.344.984-.816q.792.528 1.392.984.624.432.624.84 0 .288-.096.624a3.3 3.3 0 0 0-.12.792 76 76 0 0 0-.072 3.312q.024 1.632.048 2.928.048 1.296.048 1.968 0 .72-.288 1.08-.264.384-.792.384t-.888-.336a2.1 2.1 0 0 1-.504-.864 3.4 3.4 0 0 1-.168-1.032q0-.336.096-.744t.168-1.008.12-1.32q.048-.744.072-1.488.048-.768.048-1.464.024-.696.024-1.248v-.864q-.024-.528-.192-.888-.144-.36-.504-.84m16.992-5.712q1.152.192 2.328.576 1.2.384 2.184.936 1.008.528 1.608 1.224.624.696.624 1.536 0 .528-.36.912-.336.384-.888.384-.456 0-.816-.264-.36-.288-.84-.912-.432-.552-.816-1.008-.384-.48-.816-.912a10 10 0 0 0-1.032-.936 19 19 0 0 0-1.416-1.104Zm17.112 2.328.48.312a27.6 27.6 0 0 1-3.312 4.848 35 35 0 0 1-4.272 4.176 48 48 0 0 1-5.04 3.624q-.312.192-.552.456a4 4 0 0 1-.48.456.77.77 0 0 1-.528.192q-.576 0-1.248-.36a6 6 0 0 1-1.224-.864q-.528-.504-.792-.936a4.2 4.2 0 0 1-.336-.912 5.5 5.5 0 0 1-.168-1.008l.36-.216.672.672q.384.36.792.6t.816.24q.552 0 1.608-.48 1.08-.504 2.448-1.368a47 47 0 0 0 5.904-4.368 39 39 0 0 0 2.736-2.568 22 22 0 0 0 2.136-2.496m11.688.624.312-.288q.816.552 1.608.864a5 5 0 0 0 1.68.288q1.152 0 2.136-.144t1.752-.36q.768-.24 1.296-.432 1.056-.36 1.512-.576.456-.24.6-.24.528.024 1.056.288.528.24.528.696 0 .48-.312.72-.288.216-1.032.504-.408.144-1.224.384-.792.216-1.8.408t-2.112.336q-1.104.12-2.136.12-.768 0-1.416-.144-.624-.168-1.224-.72t-1.224-1.704m4.08-3.504-.048-.432q.408-.264.96-.48.576-.24 1.032-.24.672 0 1.296.216.648.216 1.056.528t.408.624q0 .264-.072.48-.048.192-.144.456t-.168.744q-.096.432-.168 1.104t-.12 1.488a56 56 0 0 0-.024 1.656q0 1.848.12 3.432.12 1.56.24 2.808.144 1.248.144 2.064 0 1.032-.456 1.8-.456.744-1.44 1.128-.96.408-2.52.408-1.08 0-1.992-.36a3.36 3.36 0 0 1-1.44-1.008q-.552-.672-.552-1.632 0-1.128.672-1.824.696-.72 1.824-1.056a8.9 8.9 0 0 1 2.496-.336q1.944 0 3.336.432 1.416.432 2.376 1.032t1.512 1.152q.384.36.576.744.216.36.216.744 0 .504-.24.792-.216.264-.648.264-.336 0-.648-.24-.288-.24-.792-.72A11.7 11.7 0 0 0 489.468 24a8.4 8.4 0 0 0-2.208-.936 9.3 9.3 0 0 0-2.568-.336q-.696 0-1.368.216a3 3 0 0 0-1.08.552q-.408.36-.408.888 0 .744.672 1.08.696.312 1.656.312 1.272 0 1.896-.288.648-.312.888-.888.264-.6.264-1.488 0-.504-.048-1.32t-.096-1.8l-.096-2.064q-.048-1.08-.048-2.04v-4.752q0-.408-.072-.6a.5.5 0 0 0-.168-.288.8.8 0 0 0-.312-.168 5 5 0 0 0-.816-.192 15 15 0 0 0-.888-.12m-10.656-.864.288-.264q.528.144.864.312.36.144.744.432.336.192.768.672t.768 1.08q.336.576.336 1.176 0 .456-.264.912-.24.456-.672 1.392-.36.744-.768 1.776a17 17 0 0 0-.696 2.232 10.8 10.8 0 0 0-.264 2.376q0 .744.096 1.224t.24.792q.12.24.264.264.168 0 .336-.264.216-.312.528-.936t.672-1.368l.696-1.44q.336-.72.552-1.176l.552.264q-.168.48-.408 1.152-.24.648-.48 1.344-.24.672-.456 1.248-.192.552-.288.888-.168.672-.264 1.08a4 4 0 0 0-.072.696q0 .6.192 1.176.216.552.216 1.08 0 1.08-.984 1.08-.408 0-.768-.288a3.2 3.2 0 0 1-.648-.72q-.384-.552-.72-1.416a11.6 11.6 0 0 1-.552-1.968 14.6 14.6 0 0 1-.192-2.448q0-1.248.192-2.472.216-1.248.456-2.304.264-1.08.456-1.8.24-.864.408-1.584.168-.744.168-1.44a2.64 2.64 0 0 0-.384-1.44 8 8 0 0 0-.912-1.32"/><path stroke="#404040" d="M505.5 14h110M505.5 19h110"/><path fill="#404040" d="m65.713 71.088-.192-1.216a9.7 9.7 0 0 1 2.176-.896 8.6 8.6 0 0 1 2.304-.32q1.28 0 2.752.576t2.624 1.408 1.152 1.6q0 1.088-.576 2.048-.512.96-.832 2.496-.255 1.216-.512 3.264a214 214 0 0 0-.384 4.544q-.127 2.56-.256 5.44a245 245 0 0 0-.064 5.568q0 5.055.128 8.32.192 3.264.384 5.312t.32 3.264q.192 1.216.192 2.24a7.7 7.7 0 0 1-.512 2.752q-.512 1.344-1.344 2.176-.832.896-1.792.896-.704 0-1.152-.576a13 13 0 0 1-.96-1.472q-.511-.896-1.536-1.792-.768-.703-2.176-1.728a88 88 0 0 0-2.944-2.176 25 25 0 0 0-2.752-1.792l.896-1.216q1.28.576 2.816 1.408a196 196 0 0 1 3.008 1.536q1.536.768 2.752 1.344 1.024.384 1.408.064t.384-1.216V90.096q.064-3.456.064-6.848v-6.016q0-2.625-.064-3.712 0-1.024-.256-1.344-.255-.385-1.024-.64a6.1 6.1 0 0 0-1.792-.384 34 34 0 0 0-2.24-.064M56.625 81.52q1.664 1.6 2.688 2.432 1.087.768 2.176 1.088 1.087.256 2.688.192 1.215-.064 2.624-.256 1.472-.192 3.136-.576 1.664-.448 3.264-1.024 2.944-.96 4.736-1.92a81 81 0 0 0 3.008-1.728q1.152-.704 1.856-.704.448 0 .896.064.512.064.896.256.449.192.768.512.32.32.32.832 0 1.472-2.048 2.496-1.28.64-3.072 1.344-1.792.64-3.712 1.28-1.856.64-3.456 1.152-1.088.255-2.816.704a47 47 0 0 1-3.52.768q-1.793.32-3.072.32-1.536 0-3.008-.384t-2.816-1.728q-1.343-1.408-2.624-4.288Zm2.752 26.176q1.28-.768 3.328-2.24a509 509 0 0 1 4.416-3.136q2.432-1.664 4.672-2.816a69.4 69.4 0 0 1 9.408-4.224q4.928-1.856 10.432-1.856 3.712 0 6.528 1.472 2.816 1.409 4.416 4.032 1.664 2.624 1.664 6.208 0 3.264-1.6 5.952-1.536 2.688-4.48 4.288-2.88 1.6-6.912 1.6-2.304 0-4.48-.64-2.112-.704-4.032-2.112-1.855-1.471-3.52-3.648l1.024-1.024q1.92 1.536 4.352 2.688 2.496 1.152 5.76 1.152 4.8 0 7.296-2.624 2.56-2.624 2.56-6.464 0-2.368-1.088-4.288-1.087-1.984-3.264-3.072-2.176-1.152-5.568-1.152-2.944 0-6.144 1.024-3.136.96-6.208 2.496a72 72 0 0 0-5.76 3.072 50 50 0 0 0-3.776 2.56 64 64 0 0 0-3.712 3.072 129 129 0 0 0-3.392 3.136q-1.728 1.6-2.624 2.24-.832.576-1.536.576-.512 0-1.024-.256a6 6 0 0 1-1.024-.832q-.64-.64-.896-1.28a3.6 3.6 0 0 1-.256-1.344q0-1.152.32-1.536.384-.384 1.472-.32 1.344.257 2.048 0a10 10 0 0 0 1.6-.704m31.04-29.376-.128-1.664q2.432-.511 4.416-.576 2.047-.128 4.096.256 2.496.449 4.672 1.92 2.24 1.409 3.584 3.392 1.408 1.92 1.472 3.904.064.96-.32 1.728-.384.704-1.28.768-.768.192-1.28-.128a7.5 7.5 0 0 0-1.152-.704q-.64-.384-1.664-.128-.832.065-2.368.768t-2.56 1.152l-.704-1.152q.704-.384 1.728-1.024 1.024-.704 1.984-1.344.96-.704 1.408-1.152.512-.512.512-1.024.064-.512-.448-1.28a7.5 7.5 0 0 0-3.264-2.624 12.2 12.2 0 0 0-4.16-1.088 27 27 0 0 0-4.544 0m25.152-5.504h22.08l2.752-3.648.896.768q.895.705 2.112 1.792a57 57 0 0 1 2.176 1.92q-.256 1.024-1.664 1.024h-27.84Zm6.592 2.432q2.496 1.28 3.776 2.752 1.344 1.409 1.856 2.688t.32 2.368q-.127 1.024-.768 1.664-.576.576-1.408.512t-1.728-.832q.064-2.175-.832-4.672-.896-2.495-1.984-4.16Zm5.248-10.368 6.4.704q-.064.64-.64 1.088t-1.664.64v6.336h-4.096Zm7.424 9.92 6.016 1.92q-.448 1.215-2.432 1.088-1.024 1.984-2.624 4.352a45 45 0 0 1-3.392 4.416h-1.28q1.024-2.496 2.048-5.76 1.088-3.328 1.664-6.016m-14.848 10.88h17.216l2.624-3.392.832.704q.896.64 2.048 1.664a31 31 0 0 1 2.048 1.856q-.192 1.024-1.664 1.024h-23.104Zm-1.792 0v-2.048l4.608 2.048h-.768v6.976q0 2.88-.192 6.528-.128 3.648-.832 7.616a44 44 0 0 1-2.048 7.808 29.7 29.7 0 0 1-3.712 7.232l-.896-.768a40.2 40.2 0 0 0 2.688-9.408q.833-4.928.96-9.728.192-4.864.192-9.28Zm18.176 2.112 4.928 3.008q-.256.448-.768.576-.448.064-1.408-.064-3.007 2.368-7.104 4.608a68 68 0 0 1-8.064 3.712l-.768-1.152q3.456-1.985 6.976-4.8 3.584-2.816 6.208-5.888m1.088 9.024 4.992 3.008a1.18 1.18 0 0 1-.768.576q-.512.064-1.472-.128-3.392 2.88-7.936 5.44a62.6 62.6 0 0 1-9.088 4.288l-.768-1.152q4.096-2.24 8.064-5.312 3.968-3.136 6.976-6.72m1.6 9.28 5.632 3.008a1.66 1.66 0 0 1-.832.704q-.512.128-1.6-.128a43.4 43.4 0 0 1-10.368 8.064q-5.824 3.2-12.544 5.184l-.576-1.152q6.08-2.56 11.2-6.4 5.184-3.84 9.088-9.28m5.248-36.8h21.632l3.008-3.84.576.448q.576.448 1.408 1.216.896.704 1.856 1.536.96.768 1.728 1.472-.192 1.024-1.664 1.024h-28.032Zm4.48 18.496h19.136v1.856h-19.136Zm0 9.408h19.136v1.856h-19.136Zm0 9.6h19.136v1.856h-19.136Zm7.232-37.504h5.504q-1.088 2.625-2.688 5.632-1.536 3.008-2.88 4.864h-1.536q.32-1.28.576-3.136a93 93 0 0 0 .576-3.84 47 47 0 0 0 .448-3.52m4.8 41.536q3.904 1.216 6.4 2.688 2.496 1.408 3.776 3.008 1.344 1.536 1.664 2.88.384 1.344 0 2.24-.384.96-1.28 1.216-.832.256-2.048-.384-.576-1.92-2.112-3.968a36 36 0 0 0-3.456-3.84q-1.856-1.92-3.584-3.264Zm5.248-32.256h-.576l2.176-2.368 4.8 3.712q-.256.32-.896.64a5 5 0 0 1-1.472.448v28.608q0 .192-.576.576a8 8 0 0 1-1.344.576 4.6 4.6 0 0 1-1.472.256h-.64Zm-19.392 0v-1.984l4.288 1.984h17.28v1.856h-17.6v29.952q0 .192-.512.512-.448.32-1.216.576-.704.256-1.6.256h-.64Zm6.336 31.936 5.568 3.2q-.576.896-2.176.32-1.855 1.792-4.8 3.584a54 54 0 0 1-6.272 3.136 56 56 0 0 1-6.528 2.432l-.576-.96a52 52 0 0 0 5.568-3.328 51 51 0 0 0 5.248-4.096q2.432-2.24 3.968-4.288m54.592-35.392a31 31 0 0 1 1.6 2.304q.768 1.216 1.216 2.496t.448 2.688q0 2.24-.512 4.928a39 39 0 0 1-1.472 5.376q-.832 2.304-2.176 5.056a49 49 0 0 1-3.008 5.376 42 42 0 0 1-3.584 4.864q-1.92 2.176-3.968 3.52-1.984 1.28-3.904 1.28-1.6 0-3.2-1.152-1.536-1.152-2.816-3.2-1.216-2.048-1.984-4.672a20.4 20.4 0 0 1-.768-5.632q0-3.263.96-6.464a25.4 25.4 0 0 1 2.944-6.144 27.5 27.5 0 0 1 4.608-5.376q3.968-3.52 8.768-5.184a30.1 30.1 0 0 1 9.92-1.664q4.992 0 9.216 1.536t7.36 4.416q3.2 2.88 4.992 6.912t1.792 9.024q0 3.967-1.408 7.872-1.409 3.84-4.608 7.04-3.137 3.2-8.448 5.376-5.312 2.112-13.12 2.56l-.256-1.472q7.808-1.408 12.928-4.416 5.184-3.072 7.744-7.616 2.56-4.608 2.56-10.368t-2.56-9.92q-2.496-4.16-6.848-6.464-4.288-2.304-9.6-2.304-4.544 0-9.024 1.792a22.35 22.35 0 0 0-7.744 5.056 23.1 23.1 0 0 0-4.8 6.784 18.4 18.4 0 0 0-1.792 8q0 3.008.768 5.504.832 2.432 2.048 3.904 1.28 1.408 2.624 1.408 1.6 0 3.392-1.664 1.856-1.664 3.584-4.16a52 52 0 0 0 3.264-5.312q1.536-2.752 2.496-5.056t1.6-4.992q.704-2.688.704-4.864 0-1.92-.64-3.392a19.3 19.3 0 0 0-1.536-3.136Zm69.952-4.096h18.816v1.92h-18.816Zm-28.288 17.984h13.952l2.944-3.84.576.448q.576.448 1.408 1.216.896.704 1.856 1.536.96.768 1.728 1.536-.192.96-1.728.96h-20.736Zm-.064 19.328h14.08l3.2-4.032.576.512q.576.448 1.472 1.216a48 48 0 0 1 1.92 1.6 39 39 0 0 1 1.856 1.6q-.256 1.024-1.792 1.024h-21.312Zm25.728-37.312v-2.496l4.928 2.496h-.768v50.432q0 .192-.448.512-.448.384-1.216.704t-1.792.32h-.704Zm-27.584-.704 6.592 2.56q-.32.832-2.432 1.088v43.264q-.065.32-.96.832-.833.576-2.688.576h-.512Zm47.424.704h-.64l2.176-2.624 5.376 4.032q-.704.896-2.752 1.28v34.56q0 1.664-.384 2.944-.384 1.216-1.856 2.048-1.409.768-4.416 1.088-.128-1.024-.448-1.792a2.55 2.55 0 0 0-.96-1.344q-.704-.448-1.984-.832-1.28-.448-3.392-.704v-1.024l.96.064a76 76 0 0 1 2.368.192q1.409.064 2.688.128t1.728.064q.896 0 1.216-.32t.32-1.024Zm-27.136-5.248 4.352 4.352q-.832.768-2.368.064-2.944 1.215-6.592 2.24-3.648.96-7.168 1.664t-6.336 1.024l-.256-1.024a95 95 0 0 0 5.824-2.176 115 115 0 0 0 6.336-2.816 94 94 0 0 0 6.208-3.328m66.688 22.848h4.928v1.024q-3.52 2.944-8.32 5.376-4.736 2.368-10.176 4.288a106 106 0 0 1-11.2 3.136l-.512-1.152a94 94 0 0 0 9.536-3.456 75 75 0 0 0 8.704-4.352q4.032-2.368 7.04-4.864m6.72.128q1.28 5.12 3.584 9.344a36.5 36.5 0 0 0 5.504 7.616 37 37 0 0 0 7.232 5.824q4.032 2.496 8.768 4.16l-.128.64q-2.88.257-3.904 3.264-4.48-2.112-8.128-4.992a35.7 35.7 0 0 1-6.336-6.592q-2.752-3.776-4.672-8.384-1.856-4.673-3.008-10.304Zm16.896 4.224 4.864 3.648q-.384.449-.896.512-.448.064-1.472-.32-1.6 1.025-3.904 2.24t-4.8 2.368a81 81 0 0 1-4.992 1.984l-.768-.832a91 91 0 0 0 8.64-6.464q2.048-1.792 3.328-3.136m-26.432.896.768-.704q3.392 2.432 5.504 5.568t3.136 6.464q1.024 3.264 1.088 6.4.127 3.072-.576 5.568-.704 2.432-2.048 3.776-.96 1.024-2.56 1.536t-4.288.512q-.064-.96-.384-1.6a2.4 2.4 0 0 0-.768-.96q-.576-.384-2.048-.768a30 30 0 0 0-2.944-.64V118q1.152.064 2.816.128a93 93 0 0 0 3.2.192q1.536.064 2.24.064.576 0 .96-.128.384-.065.64-.384 1.152-1.216 1.6-3.904.512-2.752.064-6.272t-1.984-7.168-4.416-6.656m3.2 2.176 2.432 3.2q-3.392 2.368-8 4.672a113 113 0 0 1-9.728 4.16 97 97 0 0 1-10.112 3.072l-.448-1.152a88 88 0 0 0 9.536-3.648 88 88 0 0 0 9.152-4.864q4.288-2.688 7.168-5.44m3.2 6.144 2.496 3.584q-3.84 3.136-9.152 6.08-5.249 2.944-11.328 5.312a93 93 0 0 1-12.032 3.712l-.512-1.216a91 91 0 0 0 11.52-4.352q5.76-2.688 10.752-6.016 4.992-3.392 8.256-7.104m16.256-23.68h-.64l2.304-2.432 5.12 3.776q-.256.384-1.024.768a9.5 9.5 0 0 1-1.664.512v10.24q0 .128-.576.512-.576.32-1.408.64a4.7 4.7 0 0 1-1.472.256h-.64ZM317.873 88.56h38.272v1.856h-38.272Zm0-10.048h38.272v1.856h-38.272Zm16.832 0h4.032v10.88h-4.032Zm-9.984-8.256h19.264v1.92h-21.12Zm-4.8 8.256v13.376q0 .128-.448.512-.384.32-1.216.64-.768.255-1.792.256h-.64v-14.4l1.472-1.856 3.456 1.472Zm10.816-12.032q-2.432 3.072-5.952 6.528-3.456 3.391-7.68 6.528a55.7 55.7 0 0 1-8.96 5.312l-.704-.832a54 54 0 0 0 7.808-5.952q3.776-3.456 6.784-7.104 3.072-3.712 4.864-6.912l6.528 1.344q-.127.511-.768.768-.576.255-1.92.32m10.624 3.776h-.768l2.496-2.432 4.416 4.16q-.32.256-.96.384-.576.128-1.472.192-1.856 1.409-4.416 3.392-2.496 1.92-4.928 3.136h-1.152a23 23 0 0 0 2.56-2.752 34 34 0 0 0 2.432-3.264q1.152-1.665 1.792-2.816"/><path fill="#01a197" d="M413.617 87.216q-.96-1.28-2.432-2.688-1.409-1.472-3.456-3.072l.896-1.088q2.432.96 4.288 2.112t3.072 2.24q2.24 2.112 2.24 3.84 0 .833-.448 1.344-.384.448-1.216.448-.64 0-1.28-.96a25 25 0 0 0-1.664-2.176m5.952-5.312a33 33 0 0 0-2.432-2.432q-1.344-1.215-3.52-2.752l.832-1.152q4.992 1.855 7.296 3.84 2.432 1.92 2.432 3.968 0 .768-.448 1.216-.384.448-1.088.448-.768 0-1.408-.96a25 25 0 0 0-1.664-2.176m-20.096-13.44.768-1.216a12 12 0 0 1 2.048.512q.96.256 1.92.768 1.088.64 2.112 1.664a10 10 0 0 1 1.792 2.048q.704 1.024.704 1.792 0 .64-.384 1.152-.32.448-1.088.96-.704.511-1.856 1.408a170 170 0 0 0-3.776 3.264 183 183 0 0 0-4.544 4.032 236 236 0 0 0-4.224 3.84 250 250 0 0 0-2.88 2.816q-1.344 1.409-1.792 2.112-.448.64-.448 1.216 0 .64.512 1.28.576.64 1.664 1.472a818 818 0 0 1 6.272 4.992 89 89 0 0 1 5.568 4.864 44.3 44.3 0 0 1 4.864 5.312 21 21 0 0 1 2.24 3.52q.896 1.728.896 3.136 0 .832-.256 1.408a1.84 1.84 0 0 1-.832.96q-.512.384-1.344.384-.768 0-1.344-.512a3.4 3.4 0 0 1-.896-1.024q-.512-.96-1.152-2.24-.576-1.28-1.92-3.328-2.24-3.392-5.952-7.04-3.648-3.712-9.408-8.704-1.216-1.024-1.856-2.048t-.64-2.048q0-.833.448-1.664.512-.896 1.216-1.728.96-1.152 2.56-2.816 1.6-1.665 3.456-3.584l3.776-3.904q1.856-1.92 3.392-3.52a68 68 0 0 0 2.432-2.752q.833-.96 1.152-1.536.32-.576.32-1.152 0-.768-.768-1.728-.704-1.024-2.752-2.368M442.767 95.6q.704.768 1.536 1.344.832.512 1.664.512.704 0 1.472-.192.768-.255 2.432-1.088l5.632-2.816a51 51 0 0 1 6.848-2.752 23.1 23.1 0 0 1 7.36-1.216q4.416 0 7.488 1.664 3.072 1.665 4.608 4.352 1.6 2.688 1.6 5.76 0 3.2-1.152 5.696a12.9 12.9 0 0 1-3.2 4.224 20 20 0 0 1-4.608 3.008q-2.304 1.152-5.44 1.856t-6.784.96a83 83 0 0 1-7.296.064l-.128-1.344q4.865-.32 9.216-1.28 4.352-1.024 7.744-2.752 3.456-1.728 5.44-4.48t1.984-6.592q0-2.624-1.152-4.608-1.088-1.984-3.264-3.072-2.112-1.152-5.12-1.152-2.24 0-4.608.832a26 26 0 0 0-4.48 1.984 47 47 0 0 0-3.904 2.368q-1.793 1.215-3.072 2.048-2.56 1.664-3.776 2.56-1.152.832-2.304.832-.832 0-1.856-.512a7.3 7.3 0 0 1-1.728-1.28 7.7 7.7 0 0 1-1.216-1.536 5.9 5.9 0 0 1-.448-1.472 19 19 0 0 1-.192-1.536Zm92.864-16.448.576-1.024q1.28.192 2.496.448 1.216.255 2.048.704a7.6 7.6 0 0 1 2.048 1.664q.895.96 1.344 1.92.512.895.512 1.6 0 .896-1.088 1.472-1.088.512-3.008 1.216-1.984.705-4.864 1.92-2.816 1.215-5.696 2.624a76 76 0 0 0-5.056 2.752 58 58 0 0 0-4.032 2.624 33 33 0 0 0-3.968 3.392 20.3 20.3 0 0 0-3.008 3.968q-1.152 2.048-1.152 4.288 0 1.856 1.344 3.392t4.288 2.496q2.944.896 7.936.896 4.608 0 7.744-.448t5.056-.896q1.984-.448 2.944-.448 1.088 0 2.048.256 1.024.192 1.6.768.576.512.576 1.472 0 .64-.64 1.216-.64.511-1.664.768-1.152.32-3.328.64-2.176.384-5.44.64-3.2.256-7.552.256-5.568 0-9.6-1.216-3.967-1.152-6.144-3.456t-2.176-5.632q0-3.008 1.408-5.696a23.1 23.1 0 0 1 3.584-4.992q2.176-2.304 4.352-3.968a142 142 0 0 1 3.52-2.624 51 51 0 0 1 3.968-2.368 116 116 0 0 1 4.48-2.432q2.24-1.216 4.096-2.176a86 86 0 0 1 2.88-1.536q.832-.384.96-.768.192-.384-.128-1.024-.384-.896-1.344-1.536a14 14 0 0 0-1.92-1.152m-26.176-9.28q1.28-.384 2.176-.512.96-.128 1.92-.128 1.471 0 2.88.576 1.472.576 2.432 1.408 1.024.768 1.024 1.536 0 .832-.256 1.536-.257.64-.192 1.792.065 1.215.192 3.008.192 1.728.512 3.584.32 1.792.704 3.136a13 13 0 0 0 1.6 3.392q1.024 1.472 2.752 2.432l-2.944 1.92a7.75 7.75 0 0 1-2.88-2.624 17 17 0 0 1-1.728-3.392 51 51 0 0 1-1.152-3.904 70 70 0 0 1-.896-4.672 389 389 0 0 0-.768-4.8q-.064-.832-.448-1.28-.384-.512-1.344-.832a9 9 0 0 0-1.792-.512q-1.025-.192-1.728-.32Zm52.8 2.368h49.344l3.264-3.904.576.448q.576.448 1.472 1.216.96.704 1.92 1.536a94 94 0 0 1 1.92 1.6q-.256.96-1.792.96h-56.192Zm20.8 27.712h21.888v1.92h-23.488Zm18.88 0h-.768l3.008-2.56 4.544 4.352q-.384.448-1.024.576-.576.127-1.792.192-6.272 8.96-17.088 13.952-10.816 4.927-26.368 6.528l-.384-1.088q9.536-1.664 17.344-4.48 7.808-2.88 13.568-7.168t8.96-10.304m-20.8 2.24q3.904 4.928 9.344 8.32 5.504 3.328 13.184 5.248 7.68 1.855 18.112 2.496l-.128.768q-1.408.384-2.368 1.344-.896 1.025-1.216 2.688-7.488-.96-13.248-2.56t-10.24-3.968q-4.416-2.432-7.872-5.696-3.392-3.264-6.272-7.552Zm8.128-37.76 6.592.64q-.064.64-.64 1.152-.576.448-1.728.576v6.336h-4.224Zm7.808 7.808h4.032v17.088q0 1.6-.448 2.816-.384 1.152-1.664 1.92t-4.032 1.024a6.6 6.6 0 0 0-.32-1.536q-.256-.768-.832-1.216-.64-.512-1.792-.832-1.087-.32-3.072-.576v-.96l.832.064q.895.064 2.112.128 1.216.064 2.304.128 1.152.064 1.6.064.768 0 1.024-.256.256-.32.256-.832Zm6.976 5.568q4.48 1.087 7.424 2.688 3.008 1.535 4.672 3.2 1.664 1.6 2.24 3.136.576 1.472.256 2.56-.256 1.024-1.152 1.408-.896.32-2.176-.384-.832-2.112-2.816-4.352a38 38 0 0 0-4.416-4.224q-2.432-1.984-4.672-3.392Zm-19.648-5.568h4.416a74 74 0 0 1-.64 6.464 23.3 23.3 0 0 1-1.664 5.888q-1.152 2.816-3.456 5.312t-6.144 4.672q-3.776 2.175-9.664 3.968l-.832-1.024q6.336-2.56 9.92-5.376t5.248-5.952q1.728-3.2 2.176-6.656.512-3.52.64-7.296m5.184 24.064q-2.496 3.072-6.08 6.272-3.52 3.136-8 5.888-4.416 2.752-9.6 4.608l-.576-.896a51.7 51.7 0 0 0 8.512-5.504q4.032-3.2 7.168-6.72t4.928-6.784l6.4 2.048q-.192.512-.768.832-.576.256-1.984.256m-14.912-19.2 5.12 3.008a1.63 1.63 0 0 1-.896.704q-.576.192-1.536-.064-2.112 2.24-5.568 4.8t-7.808 4.48l-.704-.768a33 33 0 0 0 4.48-3.648 45 45 0 0 0 3.904-4.288q1.792-2.24 3.008-4.224m71.488 17.088.064-3.328a76 76 0 0 1 6.144-3.584 35.8 35.8 0 0 1 6.528-2.56q3.391-1.024 7.296-1.024 3.137 0 5.952 1.088 2.88 1.024 5.056 3.008a14.4 14.4 0 0 1 3.456 4.544q1.28 2.625 1.28 5.76 0 3.584-1.344 6.784t-4.16 5.952-7.296 4.928-10.752 3.776l-.64-1.472q6.017-2.24 9.792-4.736 3.84-2.56 5.952-5.312 2.176-2.753 3.008-5.568.832-2.816.832-5.632t-1.472-5.312q-1.408-2.496-4.096-4.032-2.624-1.6-6.272-1.6-3.712 0-7.296 1.216a31.4 31.4 0 0 0-6.656 3.072q-3.072 1.92-5.376 4.032m-7.04-5.12q-1.024.64-1.664 1.408-.576.768-1.344.768-.896 0-1.984-.64a9.5 9.5 0 0 1-1.984-1.728q-.832-1.088-1.216-2.112a10 10 0 0 1-.256-1.408v-1.216l1.152-.448q.704 1.472 1.408 2.24.768.704 1.6.704.704 0 2.368-.64a57 57 0 0 0 3.584-1.536 477 477 0 0 0 3.648-1.664q1.728-.832 2.368-1.216.64-.32 1.024-.32.384-.065.96.192.832.512 1.664 1.344.896.768.896 1.408 0 .576-.512 1.088-.448.512-1.024 1.216-.511.576-1.152 1.344a28 28 0 0 0-1.28 1.664q-.576.833-1.216 1.664l.256-3.712q.32-.512.576-1.28.32-.832.512-1.6-1.408.64-2.944 1.472a63 63 0 0 0-2.88 1.6q-1.408.768-2.56 1.408m-2.816 16.192 1.024-1.408q1.024 1.344 2.24 2.88a90 90 0 0 1 2.24 2.944q1.088 1.344 1.664 2.048.832 1.024.896-.448 0-1.92-.064-4.864-.064-3.008-.064-6.464.064-3.52.256-6.848.192-3.391.576-6.528.384-3.2.704-5.952.384-2.752.64-4.8.256-2.112.256-3.392 0-1.088-.32-1.472t-1.152-.704a9.6 9.6 0 0 0-1.536-.448q-.832-.255-1.984-.448l-.064-1.28q.896-.255 1.856-.448a8.7 8.7 0 0 1 2.112-.256q1.344 0 2.688.768 1.409.767 2.304 1.856.896 1.024.896 1.984t-.448 1.792q-.449.768-.96 2.688-.256.896-.704 2.496a147 147 0 0 0-.832 3.712 199 199 0 0 0-.768 4.544 92 92 0 0 0-.512 4.672 90 90 0 0 0-.192 7.616q.128 3.84.32 7.04.256 3.136.384 5.056a54 54 0 0 1 .192 2.24q.128.96.128 1.984 0 1.087-.32 2.304-.256 1.216-.832 2.048-.576.896-1.472.896t-1.408-.576q-.512-.512-.704-1.6a36 36 0 0 0-.512-2.048 11 11 0 0 0-.64-2.048q-.32-.96-1.344-2.688a70 70 0 0 0-2.24-3.648 40 40 0 0 0-2.304-3.2m9.728-16.704-.128 5.632a165 165 0 0 1-2.816 4.416 523 523 0 0 1-3.328 4.864 878 878 0 0 1-3.392 4.864 694 694 0 0 1-3.072 4.224 21 21 0 0 1-1.088 1.344 1.92 1.92 0 0 1-1.216.576q-.704 0-1.216-.64t-.512-1.6q0-.895.256-1.536.32-.704 1.216-1.728 1.024-1.152 2.944-3.456a186 186 0 0 0 4.224-5.248 121 121 0 0 0 4.416-6.016q2.176-3.072 3.712-5.696m60.736-17.792q.576 1.345 1.344 2.56t1.984 1.216q.96 0 2.752-.32 1.793-.32 3.84-.768 2.112-.512 3.968-1.024a85 85 0 0 1 2.944-.768q.768-.255 1.088-.448.384-.255.704-.448.32-.192.704-.192.768 0 1.664.448a8 8 0 0 1 1.792 1.088q.896.704 1.408 1.472.576.768.576 1.408 0 .576-.512.96-.448.384-1.28.832-.832.449-1.92 1.472a126 126 0 0 0-3.264 2.88 307 307 0 0 0-4.224 4.032 391 391 0 0 0-4.16 4.096q-1.984 1.92-3.008 3.136-.384.32-.256.576.192.255.576.064a50 50 0 0 1 4.992-1.536q2.816-.704 6.016-.704 4.16 0 7.68 1.728t5.568 4.992q2.112 3.2 1.984 7.616-.064 3.968-2.368 7.296t-6.656 5.312q-4.289 1.984-10.368 1.984-3.583 0-6.336-.896-2.688-.896-4.224-2.56-1.472-1.728-1.472-4.032 0-2.56 1.984-4.288 2.047-1.728 5.184-1.728 2.432 0 4.736 1.152 2.304 1.088 3.904 3.328t1.92 5.76l-3.776.576q-.448-4.16-2.624-6.272-2.112-2.176-5.12-2.176-1.664 0-2.816.896-1.152.895-1.152 2.496 0 1.664 2.112 2.944 2.176 1.28 6.784 1.28 5.376 0 8.96-1.664t5.376-4.416 1.856-5.952a11 11 0 0 0-1.28-5.44q-1.344-2.56-4.032-4.16-2.688-1.665-6.656-1.664-4.544 0-8.32 1.792a26.4 26.4 0 0 0-6.912 4.608 48 48 0 0 0-5.824 6.272q-.704.896-1.216 1.28-.512.32-1.216.256-.576 0-1.152-.64-.576-.703-.512-1.92a3.4 3.4 0 0 1 .512-1.6q.512-.768 1.6-1.92a824 824 0 0 1 12.096-12.352 300 300 0 0 0 5.376-5.504 145 145 0 0 0 4.224-4.608q1.792-2.048 2.624-3.328.448-.705.192-.96-.192-.255-.768-.128-1.024.192-3.008.832-1.92.64-3.968 1.408-1.984.704-3.392 1.28a6.6 6.6 0 0 0-1.6.96 2.56 2.56 0 0 1-1.536.512q-1.216 0-2.368-.768a9.6 9.6 0 0 1-1.92-1.792q-.768-1.088-1.024-2.048a5.8 5.8 0 0 1-.128-1.728q.065-.96.192-1.856Z"/><path fill="#404040" d="M31.2 198.528h78.52l5.616-7.072 1.04.832 2.6 2.08a97 97 0 0 1 3.432 2.704 50 50 0 0 1 3.328 2.808q-.312 1.664-2.808 1.664H32.032Zm42.016-30.472 11.336 1.144a3.66 3.66 0 0 1-1.04 1.976q-.832.728-2.704.936a724 724 0 0 1-.624 17.784 137 137 0 0 1-1.664 17.056 76 76 0 0 1-4.264 16.016q-2.912 7.696-8.32 14.872-5.304 7.176-13.832 13.52-8.424 6.344-20.8 11.856l-1.248-1.872q13.312-7.072 21.528-15.184 8.32-8.215 12.792-17.16 4.575-9.048 6.344-18.824 1.768-9.88 2.08-20.384.416-10.608.416-21.736m7.696 30.992q1.248 7.696 4.056 15.496 2.912 7.697 8.112 15.288 5.304 7.488 13.624 14.248t20.384 12.168l-.208 1.144q-2.704.312-4.576 1.56t-2.704 4.264q-11.232-6.136-18.616-13.832T89.128 233.16q-4.368-8.528-6.76-17.056-2.288-8.632-3.328-16.64Zm88.816-20.176h51.792v3.12h-50.856Zm-22.776-9.152 9.984 1.144q-.103 1.04-.936 1.768-.728.728-2.392 1.04v56.056q0 1.248.52 1.872t2.392.624h9.672q1.56-.104 2.184-.208a3.7 3.7 0 0 0 1.04-.312q.416-.208.728-.832.312-.728.832-2.912a115 115 0 0 0 1.04-5.2q.52-3.016 1.04-5.824h1.248l.312 14.352q1.664.624 2.184 1.352.52.624.52 1.664 0 1.457-1.248 2.496-1.248.936-4.472 1.456-3.12.416-9.152.416h-7.28q-3.432 0-5.2-.624-1.768-.728-2.392-2.288t-.624-4.056Zm73.112 9.152h-1.144l4.056-4.68 8.216 6.968q-.624.624-1.664 1.144-.936.416-2.808.624-.416 15.08-1.144 27.352-.728 12.168-1.768 21.424-1.04 9.152-2.6 15.08-1.56 5.824-3.64 8.216a14.45 14.45 0 0 1-5.512 4.056q-3.224 1.352-7.072 1.352 0-1.769-.416-3.12-.312-1.351-1.456-2.184-1.248-1.04-4.368-1.872a59 59 0 0 0-6.24-1.352l.208-1.872q2.392.208 5.408.52t5.616.52q2.704.104 3.952.104 1.663 0 2.496-.312t1.872-1.144q1.768-1.769 3.016-7.488 1.352-5.72 2.288-14.976t1.56-21.424q.728-12.272 1.144-26.936m-86.944 24.336 34.736-6.552 3.432-7.696 1.04.624q1.04.624 2.6 1.664 1.56.936 3.328 2.08a86 86 0 0 1 3.224 2.184q0 1.56-2.288 2.08l-44.824 8.424Zm58.24-24.336h7.488q-.832 13-2.184 24.232-1.351 11.232-4.056 20.488-2.704 9.256-7.488 16.848-4.68 7.488-12.168 13.208-7.384 5.616-18.304 9.568l-1.144-1.768q11.856-4.992 19.032-13t10.92-18.512q3.848-10.608 5.512-23.504t2.392-27.56m109.616 15.912.104-2.6a35 35 0 0 1 7.592-.208q3.848.312 6.76 1.456 4.784 1.768 7.176 4.68Q325 200.92 325 204.04q0 1.769-.728 2.808-.728.936-2.288.936a6.7 6.7 0 0 1-2.288-.416q-1.144-.416-2.704-.728-1.456-.416-3.64-.208a20.6 20.6 0 0 0-5.304 1.352q-2.6.936-4.368 2.704t-2.288 4.16q-.415 2.392-.312 5.2.104 1.872.52 5.2.52 3.224 1.04 7.072t.832 7.592q.416 3.64.416 6.24 0 6.449-4.472 9.984-4.471 3.64-12.48 3.64-8.112 0-12.376-3.432t-4.264-7.904q0-3.952 2.704-7.072t7.592-4.888q4.992-1.768 11.96-1.768 8.736 0 15.496 2.704 6.864 2.704 11.232 5.824 3.744 2.288 5.408 4.576 1.768 2.184 1.768 4.16 0 1.56-.728 2.496-.624.832-1.872.832a3.3 3.3 0 0 1-1.768-.52 13.4 13.4 0 0 1-1.768-1.352 26 26 0 0 0-1.976-1.976q-3.432-3.432-7.8-6.032-4.264-2.704-9.672-4.264-5.304-1.664-12.168-1.664-7.072 0-10.816 2.496-3.64 2.392-3.64 5.2 0 2.704 2.704 4.68 2.808 1.872 8.424 1.872 4.992 0 7.592-1.456 2.704-1.56 3.64-4.056 1.04-2.6 1.04-5.616a84 84 0 0 0-.312-7.176q-.312-3.64-.624-7.176a76 76 0 0 1-.312-6.656q0-4.472 1.144-7.488 1.248-3.12 3.848-5.512 2.496-2.6 5.616-4.056a825 825 0 0 0 5.928-2.704q1.664-.728 1.456-1.768-.104-1.04-1.456-1.976-2.184-1.664-5.304-2.392t-6.656-.728m-54.704-7.072a158 158 0 0 0 4.056 3.224q1.872 1.352 4.056 2.08 2.288.728 5.824.728a34 34 0 0 0 4.576-.312 126 126 0 0 0 4.368-.832q2.08-.52 3.432-.832 6.136-1.768 9.256-3.12 3.12-1.456 4.68-2.288 1.56-.936 2.6-.936 1.664 0 2.704.936 1.144.833 1.144 2.184 0 1.457-1.352 2.496a59 59 0 0 1-2.184 1.456q-2.08 1.04-5.512 2.288a126 126 0 0 1-7.488 2.288 105 105 0 0 1-8.632 1.768 63 63 0 0 1-8.736.624q-3.848 0-6.552-1.04-2.6-1.04-4.576-3.328-1.872-2.288-3.536-5.928Zm17.576-11.752v-1.664q1.248-.52 2.912-.832 1.768-.416 3.224-.416 2.08 0 4.16.416t3.432 1.352q.728.416.832 1.248.208.833-.208 2.808-.312 1.872-1.352 5.408-.936 3.536-2.6 9.568a380 380 0 0 1-2.392 7.384q-1.456 4.264-3.536 9.36a210 210 0 0 1-4.368 10.4 202 202 0 0 1-5.096 10.296q-2.6 4.992-5.512 9.256a17.6 17.6 0 0 1-2.184 2.704q-1.04 1.04-2.496 1.04t-2.288-1.248a5.85 5.85 0 0 1-.728-2.808q0-1.248.416-2.392.416-1.248 1.456-2.6 3.328-4.472 7.176-10.4 3.953-6.032 7.488-13.208 3.64-7.176 5.824-15.288a84 84 0 0 0 1.352-5.304 92 92 0 0 0 1.04-5.408q.416-2.6.52-4.264t-.416-2.392q-.416-.832-1.768-1.352a9.8 9.8 0 0 0-2.496-.936q-1.352-.416-2.392-.728"/><path stroke="#01b1a6" stroke-width="2" d="M359 152h414v123H359Z"/><path fill="#01b1a6" d="M430.904 181.784q0-4.68 3.224-7.904 3.328-3.328 8.008-3.328t7.904 3.328q3.224 3.224 3.224 7.904 0 4.576-3.224 7.904t-7.904 3.328-8.008-3.328q-3.224-3.328-3.224-7.904m3.432 0q0 3.224 2.288 5.512t5.512 2.288 5.408-2.288q2.288-2.288 2.288-5.512 0-3.328-2.288-5.512-2.184-2.288-5.408-2.288t-5.512 2.288q-2.288 2.184-2.288 5.512m-39 62.92q2.496.832 5.2 1.768 2.808.936 4.784 1.352.936.209 1.456 0 .624-.312.728-1.352.104-1.768.208-5.408.104-3.744.104-8.32.104-4.577.104-9.048v-7.8q0-2.184-.104-5.304 0-3.12-.104-6.552 0-3.536-.104-6.76 0-3.328-.104-5.928t-.312-3.952q-.209-2.392-2.184-3.12-1.872-.832-6.032-1.352l-.104-2.288a46 46 0 0 1 3.952-.728q2.288-.416 3.952-.416 2.184.104 4.368 1.144 2.184.936 3.744 2.392 1.56 1.352 1.56 2.496 0 .936-.624 1.56a10 10 0 0 0-1.04 1.248q-.52.728-.624 2.288-.208 1.872-.312 5.096-.104 3.12-.208 6.864 0 3.64-.104 7.176v12.48q0 3.744.104 8.008t.104 8.32q.104 4.056.104 6.968.104 2.808.104 3.744 0 2.184-.728 4.264t-2.08 3.328q-1.248 1.352-3.12 1.352-1.457 0-2.184-.624-.624-.624-1.144-1.768-.52-1.04-1.664-2.392-1.456-1.56-3.848-3.328a54 54 0 0 0-4.888-3.224Zm-25.48-43.472 1.872-.936a28 28 0 0 0 3.12 3.744q1.664 1.663 3.328 1.56 1.56 0 4.576-.312 3.12-.312 6.968-.728l7.696-.832q3.848-.52 7.072-.936 3.328-.416 5.2-.624 9.568-1.144 14.976-1.976t8.008-1.456q2.705-.728 3.744-1.04 1.144-.312 2.08-.312 1.976 0 4.056.728t3.536 1.872q1.56 1.04 1.56 2.288 0 1.664-.936 2.288-.832.624-2.808.624-2.184 0-4.68-.104a143 143 0 0 0-5.824-.104q-2.496 0-6.656.312t-8.632.832q-4.472.416-8.216.832-3.328.416-7.696 1.04-4.265.52-8.424 1.248-4.16.624-7.28 1.248-2.08.416-3.328 1.04-1.144.624-2.08 1.144-.832.52-2.08.52-1.144 0-2.704-.832-1.456-.936-2.912-2.392a13.4 13.4 0 0 1-2.184-3.12q-.52-.936-.832-2.496a73 73 0 0 1-.52-3.12M441.2 237.84q-2.08-3.64-5.72-8.112-3.536-4.576-9.048-8.528l1.456-1.768a54 54 0 0 1 10.192 5.096q4.888 3.12 8.216 6.968 3.432 3.744 4.264 8.008.416 2.287-.52 3.744-.832 1.352-2.704 1.352-2.184 0-3.432-2.08a597 597 0 0 0-2.704-4.68m-53.04-17.264 2.808.624q-.416 4.264-2.08 8.84a41.7 41.7 0 0 1-3.952 8.32q-2.288 3.744-5.096 6.136-2.704 2.392-5.512 2.392-1.664 0-2.704-1.04-.936-1.144-.936-2.496t.624-2.08q.727-.832 1.872-1.664a66 66 0 0 0 2.912-2.08q5.616-4.264 8.112-8.424t3.952-8.528m134.784-43.16.728-1.976q1.768.103 3.432.312a9 9 0 0 1 3.328.832q2.08.624 4.056 2.184t3.224 3.328q1.352 1.768 1.352 3.12 0 .936-.624 1.456-.52.52-1.56 1.248-1.04.624-2.496 2.184a401 401 0 0 1-7.592 8.32q-4.472 4.68-10.4 10.192-2.08 1.976-5.928 5.096-3.847 3.12-9.048 6.76t-11.648 7.384q-6.449 3.64-13.728 6.656l-1.352-2.496q7.904-4.472 14.768-9.152 6.864-4.784 12.688-9.672t10.4-9.464q4.68-4.576 8.112-8.528 3.432-4.056 5.616-7.176 2.808-3.952 2.808-5.304 0-1.248-1.456-2.392-1.351-1.248-4.68-2.912m-9.464 30.472 3.12-2.704a69 69 0 0 1 4.992 3.432q2.288 1.664 2.288 3.016 0 1.04-.416 2.288-.416 1.145-.52 3.12a357 357 0 0 0-.312 14.872v13.312q.104 5.928.104 9.048 0 2.912-.728 3.952-.728 1.144-2.392 1.144t-2.912-1.456q-1.144-1.352-1.768-3.224-.52-1.976-.52-3.744 0-1.456.416-3.12.52-1.664.832-4.264.208-2.08.416-5.2.209-3.224.312-6.76.208-3.536.208-6.968.104-3.432.104-6.136t-.104-4.056q-.104-1.976-.728-3.224-.624-1.352-2.392-3.328m74.152-23.92a71 71 0 0 1 9.048 3.224q4.577 1.872 8.424 4.264 3.952 2.288 6.344 5.096t2.392 5.824q0 1.769-1.04 2.808-.936 1.04-2.6 1.04-1.248 0-2.496-.936-1.144-.936-3.224-3.432a56 56 0 0 0-3.744-4.16 62 62 0 0 0-3.744-3.64q-1.976-1.768-4.576-3.64a121 121 0 0 0-6.032-4.264Zm69.888 9.776 2.392 1.56a118.6 118.6 0 0 1-14.664 20.488q-8.424 9.36-18.512 17.472t-21.424 15.392a8 8 0 0 0-1.872 1.56 19 19 0 0 1-1.664 1.664q-.832.624-1.976.624-1.976 0-4.576-1.352a26.7 26.7 0 0 1-4.68-3.224q-2.08-1.872-3.12-3.432-.832-1.352-1.456-3.432-.52-2.08-.728-3.328l1.664-1.04q1.56 1.664 3.12 3.224 1.664 1.56 3.328 2.6 1.664.936 3.328.936 1.976 0 6.136-2.08 4.264-2.08 9.88-5.824t11.856-8.632a240 240 0 0 0 12.376-10.4 164 164 0 0 0 11.544-11.44q5.408-5.824 9.048-11.336m46.384-16.328q2.08-.416 3.64-.832a11.7 11.7 0 0 1 3.016-.416q1.664 0 3.536.728a22.4 22.4 0 0 1 3.744 1.56q1.872.936 3.016 2.08 1.144 1.04 1.144 1.976 0 1.04-.52 1.768l-1.04 1.56q-.52.832-.728 2.6-.312 2.704-.52 6.344-.104 3.64-.208 7.384a233 233 0 0 0-.104 6.552q0 2.184-.104 6.552v30.368q.104 3.432.208 5.824.104 2.288.104 3.64 0 2.08-.832 3.016t-2.496.936-2.808-1.56-1.768-3.744-.624-3.952q0-1.663.52-3.432t.832-4.68.416-7.176q.209-4.368.312-9.048.104-4.784.104-9.152v-7.28q0-3.224-.104-6.656v-6.968q0-3.432-.104-6.344-.104-3.016-.416-4.888-.208-2.496-2.08-3.328t-6.032-1.248Zm13.832 29.12a99 99 0 0 1 15.08 4.264q7.28 2.704 11.752 5.512 2.393 1.56 4.056 3.536 1.768 1.872 1.768 4.264 0 1.352-.832 2.496-.832 1.04-2.496 1.04a4.36 4.36 0 0 1-2.288-.624q-.936-.624-2.08-1.768a46 46 0 0 0-2.6-2.6q-1.56-1.56-3.848-3.328-3.744-2.6-8.32-4.888-4.472-2.392-10.192-4.472Z"/></svg>